<?xml version="1.0" encoding="UTF-8" standalone="no"?>
<svg
   viewBox="0 0 128 128"
   fill="currentColor"
   version="1.1"
   id="svg1"
   sodipodi:docname="icon.svg"
   width="128"
   height="128"
   inkscape:version="1.3 (0e150ed6c4, 2023-07-21)"
   xmlns:inkscape="http://www.inkscape.org/namespaces/inkscape"
   xmlns:sodipodi="http://sodipodi.sourceforge.net/DTD/sodipodi-0.dtd"
   xmlns:xlink="http://www.w3.org/1999/xlink"
   xmlns="http://www.w3.org/2000/svg"
   xmlns:svg="http://www.w3.org/2000/svg">
  <defs
     id="defs1">
    <linearGradient
       id="linearGradient4"
       inkscape:collect="always">
      <stop
         style="stop-color:#ffffff;stop-opacity:1;"
         offset="0.2110849"
         id="stop5" />
      <stop
         style="stop-color:#567de0;stop-opacity:1;"
         offset="1"
         id="stop4" />
    </linearGradient>
    <radialGradient
       inkscape:collect="always"
       xlink:href="#linearGradient4"
       id="radialGradient5"
       cx="110.47455"
       cy="63.210732"
       fx="110.47455"
       fy="63.210732"
       r="14.787885"
       gradientTransform="matrix(1,0,0,1.0005451,0,-0.03445884)"
       gradientUnits="userSpaceOnUse" />
  </defs>
  <sodipodi:namedview
     id="namedview1"
     pagecolor="#505050"
     bordercolor="#ffffff"
     borderopacity="1"
     inkscape:showpageshadow="0"
     inkscape:pageopacity="0"
     inkscape:pagecheckerboard="1"
     inkscape:deskcolor="#505050"
     inkscape:zoom="4.046875"
     inkscape:cx="73.019305"
     inkscape:cy="82.903475"
     inkscape:window-width="1920"
     inkscape:window-height="991"
     inkscape:window-x="-9"
     inkscape:window-y="-9"
     inkscape:window-maximized="1"
     inkscape:current-layer="svg1" />
  <path
     d="m 14.43055,14.43055 c -3.041803,0 -5.5077176,2.465915 -5.5077176,5.507717 v 88.123473 c 0,3.0419 2.4659146,5.50771 5.5077176,5.50771 h 99.13891 c 3.04191,0 5.50771,-2.46581 5.50771,-5.50771 V 19.938267 c 0,-3.041802 -2.4658,-5.507717 -5.50771,-5.507717 z m 27.538583,11.015433 v 16.52315 H 19.938266 V 25.445983 Z M 19.938266,75.015434 V 52.984567 h 22.030867 v 22.030867 z m 0,11.015434 H 41.969133 V 102.55402 H 19.938266 Z m 33.046301,0 H 108.06174 V 102.55402 H 52.984566 Z M 108.06174,75.015434 H 52.984566 V 52.984567 h 55.077174 z m 0,-49.569451 v 16.52315 H 52.984566 v -16.52315 z"
     id="path1"
     style="fill:#6395ff;fill-opacity:1;stroke-width:0.999997" />
  <path
     style="fill:#ffffff;fill-opacity:1;stroke-width:1"
     d="M 66.783681,87.379593 C 62.596766,82.623456 59.06931,77.272367 56.343692,71.46936 h 8.283516 c 2.099097,3.860884 4.609443,7.466379 7.472036,10.757042 C 76.865658,76.971322 80.669829,70.82805 83.2333,64.075443 H 46.278129 V 56.681525 H 68.459881 V 49.287608 H 75.8538 v 7.393917 h 17.189744 c -0.32274,1.589472 -0.703532,3.15798 -1.140502,4.703126 -2.791207,9.868624 -7.863436,18.777 -14.611124,26.120268 2.66144,2.393042 5.537674,4.552061 8.596167,6.443794 l -2.7827,6.958427 C 79.112299,98.541448 75.384176,95.776499 71.976393,92.666247 65.42028,98.344035 57.710901,102.72604 49.245678,105.41447 L 47.00754,98.367327 c 7.343417,-2.33205 14.046299,-6.105534 19.776141,-10.987734 z"
     id="path4" />
  <path
     id="path3"
     style="display:inline;fill:#ffffff;fill-opacity:1;stroke-width:1"
     d="M 99.884766 78.863281 L 83.621094 119.5293 L 91.583984 119.5293 L 96.017578 108.43945 L 111.13672 108.43945 L 115.57812 119.5293 L 123.54492 119.5293 L 107.27734 78.863281 L 99.884766 78.863281 z M 103.58008 89.529297 L 108.18359 101.04492 L 98.970703 101.04492 L 103.58008 89.529297 z " />
  <path
     style="fill:url(#radialGradient5);fill-opacity:1;stroke-width:1"
     d="m 113.11199,74.767117 -0.91166,2.091295 c -0.66693,1.531022 -2.78454,1.531022 -3.45185,0 l -0.9113,-2.091295 c -1.62482,-3.7289 -4.55132,-6.697782 -8.203181,-8.321965 l -2.808583,-1.249055 c -1.518339,-0.675398 -1.518339,-2.885144 0,-3.560541 l 2.65146,-1.179256 c 3.745764,-1.665954 6.724764,-4.744715 8.321484,-8.600272 l 0.93606,-2.259952 c 0.65253,-1.575055 2.82782,-1.575055 3.47996,0 l 0.93607,2.259952 c 1.59707,3.855557 4.57609,6.934311 8.32186,8.600272 l 2.65109,1.179256 c 1.51871,0.675397 1.51871,2.885143 0,3.560541 l -2.80822,1.249055 c -3.65185,1.624183 -6.57837,4.593065 -8.20319,8.321965 z"
     id="path1-4" />
</svg>
